<mxfile host="app.diagrams.net" modified="2023-04-10T07:40:46.376Z" agent="Mozilla/5.0 (X11; Ubuntu; Linux x86_64; rv:109.0) Gecko/20100101 Firefox/111.0" etag="I6EEHv-XOsVBvDH1NTd1" version="21.1.2" type="github">
  <diagram name="Page-1" id="s5odUGZ4UGZRrFUFLIFI">
    <mxGraphModel dx="1364" dy="730" grid="1" gridSize="10" guides="1" tooltips="1" connect="1" arrows="1" fold="1" page="1" pageScale="1" pageWidth="3300" pageHeight="4681" math="0" shadow="0">
      <root>
        <mxCell id="0" />
        <mxCell id="1" parent="0" />
        <mxCell id="0ncINhCNQhol7j3XRPfQ-1" value="" style="endArrow=none;html=1;rounded=0;" edge="1" parent="1">
          <mxGeometry width="50" height="50" relative="1" as="geometry">
            <mxPoint x="240" y="120" as="sourcePoint" />
            <mxPoint x="1440" y="120" as="targetPoint" />
          </mxGeometry>
        </mxCell>
        <mxCell id="0ncINhCNQhol7j3XRPfQ-2" value="" style="endArrow=none;html=1;rounded=0;" edge="1" parent="1">
          <mxGeometry width="50" height="50" relative="1" as="geometry">
            <mxPoint x="240" y="680" as="sourcePoint" />
            <mxPoint x="240" y="120" as="targetPoint" />
          </mxGeometry>
        </mxCell>
        <mxCell id="0ncINhCNQhol7j3XRPfQ-3" value="" style="endArrow=none;html=1;rounded=0;" edge="1" parent="1">
          <mxGeometry width="50" height="50" relative="1" as="geometry">
            <mxPoint x="240" y="160" as="sourcePoint" />
            <mxPoint x="1440" y="160" as="targetPoint" />
          </mxGeometry>
        </mxCell>
        <mxCell id="0ncINhCNQhol7j3XRPfQ-4" value="" style="endArrow=none;html=1;rounded=0;" edge="1" parent="1">
          <mxGeometry width="50" height="50" relative="1" as="geometry">
            <mxPoint x="480" y="680" as="sourcePoint" />
            <mxPoint x="480" y="120" as="targetPoint" />
          </mxGeometry>
        </mxCell>
        <mxCell id="0ncINhCNQhol7j3XRPfQ-6" value="" style="ellipse;html=1;shape=startState;fillColor=#000000;strokeColor=#ff0000;" vertex="1" parent="1">
          <mxGeometry x="345" y="190" width="30" height="30" as="geometry" />
        </mxCell>
        <mxCell id="0ncINhCNQhol7j3XRPfQ-7" value="" style="edgeStyle=orthogonalEdgeStyle;html=1;verticalAlign=bottom;endArrow=open;endSize=8;strokeColor=#ff0000;rounded=0;" edge="1" source="0ncINhCNQhol7j3XRPfQ-6" parent="1">
          <mxGeometry relative="1" as="geometry">
            <mxPoint x="360" y="280" as="targetPoint" />
          </mxGeometry>
        </mxCell>
        <mxCell id="0ncINhCNQhol7j3XRPfQ-8" value="Ожидание" style="html=1;whiteSpace=wrap;" vertex="1" parent="1">
          <mxGeometry x="305" y="280" width="110" height="50" as="geometry" />
        </mxCell>
        <mxCell id="0ncINhCNQhol7j3XRPfQ-9" value="Действие пользователя" style="html=1;whiteSpace=wrap;" vertex="1" parent="1">
          <mxGeometry x="305" y="400" width="110" height="50" as="geometry" />
        </mxCell>
        <mxCell id="0ncINhCNQhol7j3XRPfQ-11" value="" style="edgeStyle=orthogonalEdgeStyle;html=1;verticalAlign=bottom;endArrow=open;endSize=8;strokeColor=#ff0000;rounded=0;entryX=0.5;entryY=0;entryDx=0;entryDy=0;" edge="1" parent="1" target="0ncINhCNQhol7j3XRPfQ-9">
          <mxGeometry relative="1" as="geometry">
            <mxPoint x="359.5" y="390" as="targetPoint" />
            <mxPoint x="359.5" y="330" as="sourcePoint" />
          </mxGeometry>
        </mxCell>
        <mxCell id="0ncINhCNQhol7j3XRPfQ-12" value="" style="edgeStyle=orthogonalEdgeStyle;html=1;verticalAlign=bottom;endArrow=open;endSize=8;strokeColor=#ff0000;rounded=0;entryX=0.5;entryY=0;entryDx=0;entryDy=0;" edge="1" parent="1">
          <mxGeometry relative="1" as="geometry">
            <mxPoint x="360" y="520" as="targetPoint" />
            <mxPoint x="359.5" y="450" as="sourcePoint" />
            <Array as="points">
              <mxPoint x="360.5" y="450" />
              <mxPoint x="360.5" y="485" />
            </Array>
          </mxGeometry>
        </mxCell>
        <mxCell id="0ncINhCNQhol7j3XRPfQ-13" value="Нажатие на кнопку &quot;Вкл&quot;" style="html=1;whiteSpace=wrap;" vertex="1" parent="1">
          <mxGeometry x="305" y="520" width="110" height="50" as="geometry" />
        </mxCell>
        <mxCell id="0ncINhCNQhol7j3XRPfQ-15" value="" style="edgeStyle=orthogonalEdgeStyle;html=1;verticalAlign=bottom;endArrow=open;endSize=8;strokeColor=#ff0000;rounded=0;entryX=0;entryY=0.5;entryDx=0;entryDy=0;" edge="1" parent="1" target="0ncINhCNQhol7j3XRPfQ-8">
          <mxGeometry relative="1" as="geometry">
            <mxPoint x="304" y="610" as="targetPoint" />
            <mxPoint x="304" y="550" as="sourcePoint" />
            <Array as="points">
              <mxPoint x="280" y="550" />
              <mxPoint x="280" y="305" />
            </Array>
          </mxGeometry>
        </mxCell>
        <mxCell id="0ncINhCNQhol7j3XRPfQ-16" value="Поток 1" style="text;align=center;fontStyle=1;verticalAlign=middle;spacingLeft=3;spacingRight=3;strokeColor=none;rotatable=0;points=[[0,0.5],[1,0.5]];portConstraint=eastwest;html=1;" vertex="1" parent="1">
          <mxGeometry x="320" y="130" width="80" height="26" as="geometry" />
        </mxCell>
        <mxCell id="0ncINhCNQhol7j3XRPfQ-18" value="Поток 2" style="text;align=center;fontStyle=1;verticalAlign=middle;spacingLeft=3;spacingRight=3;strokeColor=none;rotatable=0;points=[[0,0.5],[1,0.5]];portConstraint=eastwest;html=1;" vertex="1" parent="1">
          <mxGeometry x="705" y="130" width="80" height="26" as="geometry" />
        </mxCell>
        <mxCell id="0ncINhCNQhol7j3XRPfQ-19" value="" style="ellipse;html=1;shape=startState;fillColor=#000000;strokeColor=#ff0000;" vertex="1" parent="1">
          <mxGeometry x="595" y="190" width="30" height="30" as="geometry" />
        </mxCell>
        <mxCell id="0ncINhCNQhol7j3XRPfQ-20" value="" style="edgeStyle=orthogonalEdgeStyle;html=1;verticalAlign=bottom;endArrow=open;endSize=8;strokeColor=#ff0000;rounded=0;" edge="1" parent="1">
          <mxGeometry relative="1" as="geometry">
            <mxPoint x="609.5" y="280" as="targetPoint" />
            <mxPoint x="609.5" y="220" as="sourcePoint" />
          </mxGeometry>
        </mxCell>
        <mxCell id="0ncINhCNQhol7j3XRPfQ-21" value="Бездействие" style="html=1;whiteSpace=wrap;" vertex="1" parent="1">
          <mxGeometry x="555" y="280" width="110" height="50" as="geometry" />
        </mxCell>
        <mxCell id="0ncINhCNQhol7j3XRPfQ-22" value="Ожидание новых сообщений" style="html=1;whiteSpace=wrap;" vertex="1" parent="1">
          <mxGeometry x="555" y="400" width="110" height="50" as="geometry" />
        </mxCell>
        <mxCell id="0ncINhCNQhol7j3XRPfQ-23" value="" style="edgeStyle=orthogonalEdgeStyle;html=1;verticalAlign=bottom;endArrow=open;endSize=8;strokeColor=#ff0000;rounded=0;entryX=0.5;entryY=0;entryDx=0;entryDy=0;" edge="1" parent="1">
          <mxGeometry relative="1" as="geometry">
            <mxPoint x="610" y="400" as="targetPoint" />
            <mxPoint x="609.5" y="330" as="sourcePoint" />
            <Array as="points">
              <mxPoint x="610.5" y="330" />
              <mxPoint x="610.5" y="365" />
            </Array>
          </mxGeometry>
        </mxCell>
        <mxCell id="0ncINhCNQhol7j3XRPfQ-24" value="Командная очередь" style="html=1;whiteSpace=wrap;" vertex="1" parent="1">
          <mxGeometry x="555" y="520" width="110" height="50" as="geometry" />
        </mxCell>
        <mxCell id="0ncINhCNQhol7j3XRPfQ-26" value="" style="edgeStyle=orthogonalEdgeStyle;html=1;verticalAlign=bottom;endArrow=open;endSize=8;strokeColor=#ff0000;rounded=0;entryX=0.5;entryY=0;entryDx=0;entryDy=0;" edge="1" parent="1">
          <mxGeometry relative="1" as="geometry">
            <mxPoint x="610" y="520" as="targetPoint" />
            <mxPoint x="609.5" y="450" as="sourcePoint" />
            <Array as="points">
              <mxPoint x="610.5" y="450" />
              <mxPoint x="610.5" y="485" />
            </Array>
          </mxGeometry>
        </mxCell>
        <mxCell id="0ncINhCNQhol7j3XRPfQ-27" value="" style="edgeStyle=orthogonalEdgeStyle;html=1;verticalAlign=bottom;endArrow=open;endSize=8;strokeColor=#ff0000;rounded=0;entryX=0;entryY=0.5;entryDx=0;entryDy=0;" edge="1" parent="1" target="0ncINhCNQhol7j3XRPfQ-24">
          <mxGeometry relative="1" as="geometry">
            <mxPoint x="416" y="610" as="targetPoint" />
            <mxPoint x="415" y="540" as="sourcePoint" />
            <Array as="points">
              <mxPoint x="415" y="550" />
              <mxPoint x="416" y="550" />
              <mxPoint x="416" y="545" />
            </Array>
          </mxGeometry>
        </mxCell>
        <mxCell id="0ncINhCNQhol7j3XRPfQ-29" value="" style="edgeStyle=orthogonalEdgeStyle;html=1;verticalAlign=bottom;endArrow=open;endSize=8;strokeColor=#ff0000;rounded=0;" edge="1" parent="1">
          <mxGeometry relative="1" as="geometry">
            <mxPoint x="720" y="420" as="targetPoint" />
            <mxPoint x="665" y="420" as="sourcePoint" />
            <Array as="points">
              <mxPoint x="720" y="420" />
              <mxPoint x="720" y="420" />
            </Array>
          </mxGeometry>
        </mxCell>
        <mxCell id="0ncINhCNQhol7j3XRPfQ-30" value="Сообщений нет" style="rhombus;whiteSpace=wrap;html=1;fontColor=#000000;fillColor=#ffffc0;strokeColor=#ff0000;" vertex="1" parent="1">
          <mxGeometry x="720" y="390" width="100" height="60" as="geometry" />
        </mxCell>
        <mxCell id="0ncINhCNQhol7j3XRPfQ-31" value="Их нет" style="edgeStyle=orthogonalEdgeStyle;html=1;align=left;verticalAlign=bottom;endArrow=open;endSize=8;strokeColor=#ff0000;rounded=0;entryX=1;entryY=0.5;entryDx=0;entryDy=0;entryPerimeter=0;" edge="1" source="0ncINhCNQhol7j3XRPfQ-30" parent="1" target="0ncINhCNQhol7j3XRPfQ-33">
          <mxGeometry x="-0.9" y="10" relative="1" as="geometry">
            <mxPoint x="690" y="320" as="targetPoint" />
            <Array as="points">
              <mxPoint x="860" y="420" />
              <mxPoint x="860" y="320" />
              <mxPoint x="745" y="320" />
            </Array>
            <mxPoint as="offset" />
          </mxGeometry>
        </mxCell>
        <mxCell id="0ncINhCNQhol7j3XRPfQ-32" value="&lt;div&gt;Они есть&lt;/div&gt;" style="edgeStyle=orthogonalEdgeStyle;html=1;align=left;verticalAlign=top;endArrow=open;endSize=8;strokeColor=#ff0000;rounded=0;" edge="1" source="0ncINhCNQhol7j3XRPfQ-30" parent="1">
          <mxGeometry x="-1" relative="1" as="geometry">
            <mxPoint x="770" y="520" as="targetPoint" />
            <Array as="points">
              <mxPoint x="770" y="500" />
            </Array>
          </mxGeometry>
        </mxCell>
        <mxCell id="0ncINhCNQhol7j3XRPfQ-33" value="" style="shape=line;html=1;strokeWidth=6;strokeColor=#ff0000;rotation=90;" vertex="1" parent="1">
          <mxGeometry x="725" y="300" width="40" height="10" as="geometry" />
        </mxCell>
        <mxCell id="0ncINhCNQhol7j3XRPfQ-34" value="" style="edgeStyle=orthogonalEdgeStyle;html=1;verticalAlign=bottom;endArrow=open;endSize=8;strokeColor=#ff0000;rounded=0;" edge="1" source="0ncINhCNQhol7j3XRPfQ-33" parent="1">
          <mxGeometry relative="1" as="geometry">
            <mxPoint x="665" y="305" as="targetPoint" />
          </mxGeometry>
        </mxCell>
        <mxCell id="0ncINhCNQhol7j3XRPfQ-38" value="Уведомление" style="html=1;whiteSpace=wrap;" vertex="1" parent="1">
          <mxGeometry x="720" y="520" width="110" height="50" as="geometry" />
        </mxCell>
        <mxCell id="0ncINhCNQhol7j3XRPfQ-40" value="" style="edgeStyle=orthogonalEdgeStyle;html=1;verticalAlign=bottom;endArrow=open;endSize=8;strokeColor=#ff0000;rounded=0;exitX=0.75;exitY=0.5;exitDx=0;exitDy=0;exitPerimeter=0;entryX=0.25;entryY=0.5;entryDx=0;entryDy=0;entryPerimeter=0;" edge="1" source="0ncINhCNQhol7j3XRPfQ-39" parent="1" target="0ncINhCNQhol7j3XRPfQ-33">
          <mxGeometry relative="1" as="geometry">
            <mxPoint x="940" y="290" as="targetPoint" />
            <Array as="points">
              <mxPoint x="960" y="535" />
              <mxPoint x="960" y="295" />
            </Array>
          </mxGeometry>
        </mxCell>
        <mxCell id="0ncINhCNQhol7j3XRPfQ-41" value="" style="edgeStyle=orthogonalEdgeStyle;html=1;verticalAlign=bottom;endArrow=open;endSize=8;strokeColor=#ff0000;rounded=0;exitX=0.25;exitY=0.5;exitDx=0;exitDy=0;exitPerimeter=0;" edge="1" parent="1" source="0ncINhCNQhol7j3XRPfQ-39">
          <mxGeometry relative="1" as="geometry">
            <mxPoint x="1080" y="555" as="targetPoint" />
            <mxPoint x="900" y="545" as="sourcePoint" />
          </mxGeometry>
        </mxCell>
        <mxCell id="0ncINhCNQhol7j3XRPfQ-43" value="" style="edgeStyle=orthogonalEdgeStyle;html=1;verticalAlign=bottom;endArrow=open;endSize=8;strokeColor=#ff0000;rounded=0;" edge="1" parent="1" source="0ncINhCNQhol7j3XRPfQ-39">
          <mxGeometry relative="1" as="geometry">
            <mxPoint x="885" y="540" as="targetPoint" />
            <mxPoint x="830" y="540" as="sourcePoint" />
            <Array as="points">
              <mxPoint x="885" y="540" />
              <mxPoint x="885" y="540" />
            </Array>
          </mxGeometry>
        </mxCell>
        <mxCell id="0ncINhCNQhol7j3XRPfQ-45" value="" style="edgeStyle=orthogonalEdgeStyle;html=1;verticalAlign=bottom;endArrow=open;endSize=8;strokeColor=#ff0000;rounded=0;exitX=1;exitY=0.5;exitDx=0;exitDy=0;" edge="1" parent="1" source="0ncINhCNQhol7j3XRPfQ-38" target="0ncINhCNQhol7j3XRPfQ-39">
          <mxGeometry relative="1" as="geometry">
            <mxPoint x="885" y="540" as="targetPoint" />
            <mxPoint x="830" y="540" as="sourcePoint" />
            <Array as="points" />
          </mxGeometry>
        </mxCell>
        <mxCell id="0ncINhCNQhol7j3XRPfQ-39" value="" style="shape=line;html=1;strokeWidth=6;strokeColor=#ff0000;rotation=-90;" vertex="1" parent="1">
          <mxGeometry x="870" y="540" width="40" height="10" as="geometry" />
        </mxCell>
        <mxCell id="0ncINhCNQhol7j3XRPfQ-46" value="" style="endArrow=none;html=1;rounded=0;" edge="1" parent="1">
          <mxGeometry width="50" height="50" relative="1" as="geometry">
            <mxPoint x="1440" y="680" as="sourcePoint" />
            <mxPoint x="1440" y="120" as="targetPoint" />
          </mxGeometry>
        </mxCell>
        <mxCell id="0ncINhCNQhol7j3XRPfQ-47" value="" style="endArrow=none;html=1;rounded=0;" edge="1" parent="1">
          <mxGeometry width="50" height="50" relative="1" as="geometry">
            <mxPoint x="1000" y="680" as="sourcePoint" />
            <mxPoint x="1000" y="120" as="targetPoint" />
          </mxGeometry>
        </mxCell>
        <mxCell id="0ncINhCNQhol7j3XRPfQ-48" value="" style="endArrow=none;html=1;rounded=0;" edge="1" parent="1">
          <mxGeometry width="50" height="50" relative="1" as="geometry">
            <mxPoint x="240" y="680" as="sourcePoint" />
            <mxPoint x="1442" y="680" as="targetPoint" />
          </mxGeometry>
        </mxCell>
        <mxCell id="0ncINhCNQhol7j3XRPfQ-50" value="&lt;div&gt;Поток 3&lt;/div&gt;" style="text;align=center;fontStyle=1;verticalAlign=middle;spacingLeft=3;spacingRight=3;strokeColor=none;rotatable=0;points=[[0,0.5],[1,0.5]];portConstraint=eastwest;html=1;" vertex="1" parent="1">
          <mxGeometry x="1180" y="130" width="80" height="26" as="geometry" />
        </mxCell>
        <mxCell id="0ncINhCNQhol7j3XRPfQ-51" value="Просмотр сообщения" style="html=1;whiteSpace=wrap;" vertex="1" parent="1">
          <mxGeometry x="1080" y="530" width="110" height="50" as="geometry" />
        </mxCell>
        <mxCell id="0ncINhCNQhol7j3XRPfQ-52" value="" style="ellipse;html=1;shape=endState;fillColor=#000000;strokeColor=#ff0000;" vertex="1" parent="1">
          <mxGeometry x="1205" y="630" width="30" height="30" as="geometry" />
        </mxCell>
        <mxCell id="0ncINhCNQhol7j3XRPfQ-53" value="" style="edgeStyle=orthogonalEdgeStyle;html=1;verticalAlign=bottom;endArrow=open;endSize=8;strokeColor=#ff0000;rounded=0;exitX=1;exitY=0.5;exitDx=0;exitDy=0;entryX=0.5;entryY=0;entryDx=0;entryDy=0;" edge="1" parent="1" target="0ncINhCNQhol7j3XRPfQ-52">
          <mxGeometry relative="1" as="geometry">
            <mxPoint x="1245" y="554.5" as="targetPoint" />
            <mxPoint x="1190" y="554.5" as="sourcePoint" />
            <Array as="points" />
          </mxGeometry>
        </mxCell>
      </root>
    </mxGraphModel>
  </diagram>
</mxfile>
